<?xml version="1.0" encoding="UTF-8" standalone="no"?>
<!-- Created with Inkscape (http://www.inkscape.org/) -->

<svg
   width="85.848999mm"
   height="86.526001mm"
   viewBox="0 0 85.848999 86.526001"
   version="1.1"
   id="svg5"
   xml:space="preserve"
   inkscape:export-filename="appicon.svg"
   inkscape:export-xdpi="96"
   inkscape:export-ydpi="96"
   xmlns:inkscape="http://www.inkscape.org/namespaces/inkscape"
   xmlns:sodipodi="http://sodipodi.sourceforge.net/DTD/sodipodi-0.dtd"
   xmlns:xlink="http://www.w3.org/1999/xlink"
   xmlns="http://www.w3.org/2000/svg"
   xmlns:svg="http://www.w3.org/2000/svg"><sodipodi:namedview
     id="namedview7"
     pagecolor="#ffffff"
     bordercolor="#000000"
     borderopacity="0"
     inkscape:showpageshadow="false"
     inkscape:pageopacity="0"
     inkscape:pagecheckerboard="true"
     inkscape:deskcolor="#d1d1d1"
     inkscape:document-units="mm"
     showgrid="false"
     inkscape:zoom="1.5625561"
     inkscape:cx="408.30534"
     inkscape:cy="416.62504"
     inkscape:window-width="1920"
     inkscape:window-height="1057"
     inkscape:window-x="-8"
     inkscape:window-y="-8"
     inkscape:window-maximized="1"
     inkscape:current-layer="layer1"
     showborder="false"
     borderlayer="false"
     shape-rendering="auto" /><defs
     id="defs2"><linearGradient
       inkscape:collect="always"
       id="linearGradient11935"><stop
         style="stop-color:#a7db4e;stop-opacity:1;"
         offset="0"
         id="stop11931" /><stop
         style="stop-color:#007733;stop-opacity:1;"
         offset="1"
         id="stop11933" /></linearGradient><linearGradient
       inkscape:collect="always"
       id="linearGradient3903"><stop
         style="stop-color:#6ebcea;stop-opacity:1;"
         offset="0"
         id="stop3899" /><stop
         style="stop-color:#003f74;stop-opacity:1;"
         offset="1"
         id="stop3901" /></linearGradient><radialGradient
       inkscape:collect="always"
       xlink:href="#linearGradient3903"
       id="radialGradient7168"
       cx="176.10526"
       cy="65.977592"
       fx="176.10526"
       fy="65.977592"
       r="42.924458"
       gradientTransform="matrix(-0.53745628,-0.93090159,1.0758414,-0.62113731,190.53944,271.88673)"
       gradientUnits="userSpaceOnUse" /><radialGradient
       inkscape:collect="always"
       xlink:href="#linearGradient11935"
       id="radialGradient11939"
       cx="108.90284"
       cy="186.88545"
       fx="108.90284"
       fy="186.88545"
       r="42.924458"
       gradientTransform="matrix(0.9447253,0,0,0.9521787,63.08419,-79.76806)"
       gradientUnits="userSpaceOnUse" /><filter
       inkscape:collect="always"
       style="color-interpolation-filters:sRGB"
       id="filter19105"
       x="-0.011729619"
       y="-0.020886745"
       width="1.0234592"
       height="1.0417736"><feGaussianBlur
         inkscape:collect="always"
         stdDeviation="0.41957345"
         id="feGaussianBlur19107" /></filter></defs><g
     inkscape:label="Camada 1"
     inkscape:groupmode="layer"
     id="layer1"><g
       id="g19117"
       transform="translate(-105.32799,-46.903763)"><rect
         style="opacity:1;fill:url(#radialGradient7168);fill-opacity:1;stroke-width:0.268963"
         id="rect3157"
         width="85.848915"
         height="86.526222"
         x="105.32154"
         y="46.903652"
         rx="13.54618"
         ry="13.54618" /><text
         xml:space="preserve"
         style="font-size:29.5036px;opacity:1;fill:#ffffff;fill-opacity:1;stroke:#000000;stroke-width:0.477;stroke-dasharray:none"
         x="107.3112"
         y="84.64798"
         id="text16956"><tspan
           sodipodi:role="line"
           id="tspan16954"
           style="font-style:normal;font-variant:normal;font-weight:bold;font-stretch:normal;font-size:29.5036px;font-family:Arial;-inkscape-font-specification:'Arial Bold';fill:#ffffff;stroke:#000000;stroke-width:0.477;stroke-dasharray:none"
           x="107.3112"
           y="84.64798">AUTO</tspan></text><path
         id="path17025"
         style="opacity:0.715618;mix-blend-mode:normal;fill:#013981;fill-opacity:1;stroke-width:0.268963;filter:url(#filter19105)"
         d="m 156.77135,81.493731 c -4.72202,0.01141 -9.69471,0.383862 -14.22187,1.12913 -9.05431,1.490538 -17.7524,5.550237 -29.5739,11.876742 -4.41999,2.365438 -6.62196,3.29807 -7.6476,4.228724 v 17.429933 c 0,7.50458 6.04188,13.54646 13.54646,13.54646 h 58.75662 c 7.50458,0 13.54594,-6.04188 13.54594,-13.54646 V 93.128163 c -5.50121,-5.897657 -14.83405,-9.238068 -21.68756,-10.597286 -3.52453,-0.699 -7.99607,-1.04856 -12.71809,-1.037146 z"
         sodipodi:nodetypes="ssscsssscss" /><path
         id="path15910"
         style="opacity:1;fill:#f8ea0a;fill-opacity:1;stroke-width:0.268963"
         d="m 156.77135,82.552065 c -4.72202,0.01141 -9.69471,0.383862 -14.22187,1.12913 -9.05431,1.490538 -17.7524,5.550237 -29.5739,11.876742 -4.41999,2.365438 -6.62196,3.29807 -7.6476,4.228724 V 117.2166 c 0,7.50458 6.04188,13.54646 13.54646,13.54646 h 58.75662 c 7.50458,0 13.54594,-6.04188 13.54594,-13.54646 V 94.186497 c -5.50121,-5.897657 -14.83405,-9.238068 -21.68756,-10.597286 -3.52453,-0.699 -7.99607,-1.04856 -12.71809,-1.037146 z"
         sodipodi:nodetypes="ssscsssscss" /><path
         id="rect3897"
         style="opacity:1;fill:url(#radialGradient11939);stroke-width:0.268963"
         d="m 156.77135,85.1979 c -4.72202,0.01141 -9.69471,0.383862 -14.22187,1.12913 -9.05431,1.490538 -17.7524,2.893088 -29.5739,9.219593 -4.41999,2.365438 -6.62196,3.848383 -7.6476,4.779037 v 19.53679 c 0,7.50458 6.04188,13.54646 13.54646,13.54646 h 58.75662 c 7.50458,0 13.54594,-6.04188 13.54594,-13.54646 V 96.832332 c -5.50121,-5.897657 -14.83405,-9.238068 -21.68756,-10.597286 -3.52453,-0.699 -7.99607,-1.04856 -12.71809,-1.037146 z" /><text
         xml:space="preserve"
         style="font-size:28.2222px;opacity:1;fill:#ffffff;fill-opacity:1;stroke:#000000;stroke-width:0.465;stroke-linecap:round;stroke-linejoin:round;stroke-dasharray:none"
         x="108.32426"
         y="115.65051"
         id="text16798"><tspan
           sodipodi:role="line"
           id="tspan16796"
           style="font-style:normal;font-variant:normal;font-weight:bold;font-stretch:normal;font-size:28.2222px;font-family:Arial;-inkscape-font-specification:'Arial Bold';fill:#ffffff;stroke:#000000;stroke-width:0.465;stroke-linecap:round;stroke-linejoin:round;stroke-dasharray:none"
           x="108.32426"
           y="115.65051">NOTA</tspan></text></g></g></svg>
