<?xml version="1.0" encoding="UTF-8" standalone="no"?>
<!-- Uploaded to: SVG Repo, www.svgrepo.com, Generator: SVG Repo Mixer Tools -->

<svg
   fill="#000000"
   width="800px"
   height="800px"
   viewBox="0 0 1920 1920"
   version="1.1"
   id="svg4"
   sodipodi:docname="info.svg"
   inkscape:version="1.2 (dc2aedaf03, 2022-05-15)"
   xmlns:inkscape="http://www.inkscape.org/namespaces/inkscape"
   xmlns:sodipodi="http://sodipodi.sourceforge.net/DTD/sodipodi-0.dtd"
   xmlns="http://www.w3.org/2000/svg"
   xmlns:svg="http://www.w3.org/2000/svg">
  <defs
     id="defs8" />
  <sodipodi:namedview
     id="namedview6"
     pagecolor="#ffffff"
     bordercolor="#000000"
     borderopacity="0.25"
     inkscape:showpageshadow="2"
     inkscape:pageopacity="0.0"
     inkscape:pagecheckerboard="0"
     inkscape:deskcolor="#d1d1d1"
     showgrid="false"
     inkscape:zoom="0.353125"
     inkscape:cx="-76.460177"
     inkscape:cy="458.76106"
     inkscape:window-width="1366"
     inkscape:window-height="745"
     inkscape:window-x="-8"
     inkscape:window-y="-8"
     inkscape:window-maximized="1"
     inkscape:current-layer="svg4" />
  <path
     d="m 960,200.7912 c 419.2992,0 759.2088,339.90964 759.2088,759.2088 0,419.2992 -339.9096,759.2088 -759.2088,759.2088 -419.29916,0 -759.2088,-339.9096 -759.2088,-759.2088 0,-419.29916 339.90964,-759.2088 759.2088,-759.2088 z m 176.9882,559.2419 c -22.5636,-23.37809 -53.6397,-31.58941 -86.3814,-31.20269 -43.6743,0.51958 -90.31182,16.34197 -123.67192,31.88282 -79.82923,37.18857 -141.08235,103.04282 -192.09802,173.44125 -9.18643,12.67325 -13.98051,27.63678 2.18272,39.3025 13.78281,9.94879 23.70788,1.04707 32.02122,-7.82697 l 0.54568,-0.58523 c 0.63346,-0.6817 1.25823,-1.36024 1.8743,-2.02851 9.32798,-10.10064 18.3428,-20.56111 27.35761,-31.03028 l 2.2539,-2.61769 2.25469,-2.61611 c 27.07133,-31.38617 54.61242,-62.32234 91.06077,-83.3113 21.66909,-12.47792 37.2819,6.79413 33.93664,28.44107 -2.00479,12.98009 -8.82976,25.20731 -13.6025,37.75798 -16.95566,44.57426 -34.16202,89.0544 -51.29562,133.56376 -18.7746,48.795 -37.48989,97.6098 -55.69588,146.6207 l -1.58168,4.2547 -1.5801,4.2508 c -16.06202,43.2116 -31.88598,86.1006 -42.35278,131.1976 -8.36316,36.0561 -19.6216,79.8007 -3.4457,115.2234 9.31691,20.4037 29.07927,34.4269 51.06232,37.6172 29.98242,4.3528 62.40222,4.8502 91.74011,-1.8253 15.19683,-3.4544 30.14691,-7.9638 44.73796,-13.4483 44.79806,-16.8433 85.58968,-42.8209 122.32828,-73.3546 37.3752,-31.1465 70.3209,-67.9903 100.3627,-106.2038 9.6562,-12.2818 21.3559,-25.8629 24.645,-41.5951 3.0906,-14.7548 -10.0801,-35.8268 -27.1465,-27.2627 -9.0116,4.522 -15.7607,15.7116 -22.3262,23.1479 -8.2406,9.3304 -16.6425,18.5239 -25.1378,27.6162 -16.9936,18.1791 -34.4119,35.9541 -51.9061,53.6437 -10.708,10.8282 -24.0179,19.979 -37.6931,26.7012 -17.0743,8.39 -30.67286,-0.915 -28.8247,-19.8217 1.6956,-17.3621 5.9432,-34.9117 11.899,-51.3462 23.9673,-66.1738 48.3917,-132.1775 72.6263,-198.2532 15.1501,-41.293 30.2236,-82.61217 45.0772,-124.01673 13.8825,-38.69434 25.7135,-77.07788 30.7116,-118.07278 3.4457,-28.24099 -3.8751,-57.45234 -23.938,-78.24359 z m 50.3925,-317.52168 c -72.2372,-28.10496 -158.352,19.85964 -172.8577,96.29061 -10.4786,55.18815 10.5467,103.78226 53.7758,124.28485 83.6434,39.66866 183.7,-23.68889 183.7048,-116.32028 0,-51.40239 -22.6276,-87.914 -64.6237,-104.25518 z"
     fill-rule="evenodd"
     id="path2"
     style="stroke-width:0.790842" />
</svg>
